<svg width="512" height="512" viewBox="0 0 512 512" fill="none" xmlns="http://www.w3.org/2000/svg">
  <path d="M378.512 106.269C371.293 106.269 364.369 109.136 359.265 114.241C354.16 119.346 351.292 126.269 351.292 133.488C351.292 140.707 354.16 147.631 359.265 152.735C364.369 157.84 371.293 160.708 378.512 160.708C385.731 160.708 392.654 157.84 397.759 152.735C402.864 147.631 405.731 140.707 405.731 133.488C405.731 126.269 402.864 119.346 397.759 114.241C392.654 109.136 385.731 106.269 378.512 106.269Z" stroke="#FFF" stroke-width="22" stroke-linecap="round" stroke-linejoin="round"/>
  <path d="M419.341 11L278.562 11C264.125 11.0031 250.28 16.7407 240.073 26.9507L30.2101 236.814C17.91 249.116 11 265.8 11 283.196C11 300.592 17.91 317.276 30.2101 329.578L182.422 481.79C194.724 494.09 211.408 501 228.804 501C246.2 501 262.884 494.09 275.186 481.79L485.049 271.927C495.259 261.72 500.997 247.875 501 233.438L501 92.6587C501 71.0015 492.397 50.2313 477.083 34.9173C461.769 19.6033 440.999 11 419.341 11Z" stroke="#FFF" stroke-width="22" stroke-linecap="round" stroke-linejoin="round"/>
  <path d="M188.865 277.812C190.924 286.445 196.271 296.106 204.804 304.639C213.234 313.069 222.896 318.622 231.734 320.681C240.469 322.843 248.175 321.51 252.797 316.888C257.522 312.164 258.752 304.56 256.59 295.825C254.428 287.09 248.978 277.531 240.445 268.998C232.015 260.568 222.353 255.015 213.721 252.956C205.088 250.897 197.485 252.127 192.76 256.851C188.138 261.473 186.703 269.077 188.865 277.812ZM164.729 304.621C162.567 295.886 157.117 286.327 148.584 277.794C140.154 269.364 130.492 263.811 121.86 261.752C113.227 259.693 105.624 260.923 101.002 265.545C96.2772 270.269 95.0475 277.873 97.0038 286.608C99.0628 295.241 104.513 304.8 112.943 313.435C121.373 321.865 131.137 327.315 139.873 329.477C148.608 331.639 156.212 330.409 160.936 325.684C165.661 320.96 166.891 313.356 164.729 304.621ZM247.588 387.48C245.426 378.745 239.873 369.083 231.443 360.654C223.014 352.224 213.352 346.67 204.719 344.611C196.087 342.552 188.483 343.782 183.759 348.507C179.034 353.232 177.804 360.835 179.863 369.468C181.922 378.1 187.373 387.659 195.803 396.294C204.232 404.724 213.997 410.175 222.732 412.336C231.467 414.498 239.071 413.269 243.796 408.544C248.52 403.819 249.75 396.216 247.588 387.48ZM243.666 348.225C239.862 344.422 235.75 341.132 231.639 338.253C244.793 340.519 257.122 337.647 265.442 329.328C282.184 312.586 276.518 280.215 252.873 256.57C229.228 232.925 197.063 227.465 180.321 244.207C172.001 252.526 169.13 264.65 171.191 277.804C168.311 273.487 164.919 269.478 161.012 265.572C137.367 241.927 105.202 236.466 88.5627 253.105C71.8207 269.847 76.9731 302.115 100.618 325.76C120.767 345.91 147.384 352.806 165.158 344.285C156.431 362.059 163.225 388.367 183.272 408.414C206.916 432.059 239.596 437.622 256.338 420.88C273.079 404.138 267.311 371.87 243.666 348.225ZM188.031 251.917C195.529 244.419 206.422 245.04 212.176 246.071C223.583 248.028 235.301 254.61 245.067 264.376C254.936 274.245 261.518 285.962 263.475 297.369C264.505 303.124 265.127 314.017 257.732 321.618C245.098 334.045 218.892 327.971 200.079 309.158C190.313 299.392 183.834 287.777 181.979 276.268C180.331 266.197 182.382 257.566 188.031 251.917ZM108.321 318.057C98.5548 308.291 92.0759 296.676 90.2212 285.166C88.5726 275.301 90.6238 266.465 96.1702 260.918C103.668 253.421 114.561 254.042 120.316 255.072C131.722 257.03 143.44 263.611 153.206 273.378C163.075 283.247 169.657 294.964 171.512 306.474C172.542 312.228 173.163 323.121 165.768 330.722C153.34 342.944 127.134 336.87 108.321 318.057ZM179.64 329.803C183.13 322.612 184.051 314.083 182.609 305.04C185.385 309.049 188.675 313.161 192.376 316.861C196.18 320.665 200.189 324.058 204.506 326.937C195.463 325.289 186.831 326.313 179.64 329.803ZM190.975 400.711C181.209 390.944 174.73 379.33 172.875 367.82C171.124 357.852 173.278 349.119 178.824 343.572C186.322 336.074 197.214 336.696 202.969 337.726C214.376 339.683 226.094 346.265 235.86 356.031C245.729 365.901 252.311 377.618 254.268 389.23C255.298 394.985 255.92 405.878 248.422 413.376C235.994 425.598 209.788 419.524 190.975 400.711Z" fill="#FFF"/>
  <path d="M195.652 149.979C192.627 146.954 190.751 143.739 190.024 140.336C189.325 136.903 189.718 133.602 191.202 130.431L199.361 132.569C197.441 136.874 198.227 140.772 201.718 144.263C203.405 145.95 204.947 146.881 206.343 147.056C207.739 147.23 208.903 146.852 209.834 145.921C210.91 144.845 211.259 143.536 210.881 141.994C210.532 140.423 209.47 138.052 207.696 134.881C206.736 133.107 205.979 131.536 205.427 130.169C204.903 128.831 204.496 127.347 204.205 125.718C203.972 124.089 204.132 122.504 204.685 120.962C205.237 119.42 206.212 117.951 207.608 116.555C210.372 113.791 213.543 112.57 217.121 112.89C220.757 113.21 223.957 114.751 226.72 117.515C229.193 119.988 230.749 122.766 231.389 125.849C232.087 128.933 231.884 132.074 230.778 135.274L222.793 133.136C224.189 129.296 223.549 126.038 220.873 123.362C219.622 122.111 218.342 121.413 217.033 121.267C215.783 121.122 214.706 121.5 213.804 122.402C212.844 123.362 212.452 124.54 212.626 125.936C212.859 127.333 213.761 129.514 215.332 132.482C215.972 133.703 216.437 134.634 216.728 135.274C217.077 135.914 217.484 136.816 217.95 137.98C218.473 139.143 218.808 140.089 218.953 140.816C219.128 141.572 219.259 142.488 219.346 143.565C219.433 144.641 219.361 145.586 219.128 146.401C218.924 147.245 218.546 148.146 217.993 149.106C217.499 150.066 216.815 150.983 215.943 151.855C213.121 154.677 209.848 155.884 206.125 155.477C202.43 155.099 198.94 153.266 195.652 149.979Z" fill="#FFF"/>
  <path d="M271.495 163.511L240.951 194.055L234.973 188.077L254.783 168.267L232.005 173.853L231.307 173.154L236.849 150.421L217.082 170.187L211.061 164.166L241.605 133.622L247.801 139.818L242.129 163.031L265.299 157.315L271.495 163.511Z" fill="#FFF"/>
  <path d="M266.277 219.382L269.943 212.052L257.769 199.878L250.438 203.543L243.936 197.041L285.171 177.188L292.633 184.649L272.823 225.927L266.277 219.382ZM265.317 196.169L273.695 204.546L281.986 187.878L265.317 196.169Z" fill="#FFF"/>
  <path d="M292.544 245.649L296.995 228.893L292.413 224.312L281.81 234.915L275.788 228.893L306.333 198.349L318.55 210.567C321.372 213.388 322.783 216.777 322.783 220.733C322.783 224.69 321.386 228.064 318.594 230.857C316.703 232.748 314.405 233.969 311.7 234.522C309.023 235.046 306.391 234.827 303.802 233.868L299.046 252.15L292.544 245.649ZM306.725 209.999L297.693 219.032L303.889 225.228C305.023 226.362 306.434 226.901 308.122 226.842C309.838 226.755 311.321 226.086 312.572 224.835C313.823 223.584 314.478 222.115 314.536 220.428C314.594 218.741 314.056 217.33 312.921 216.195L306.725 209.999Z" fill="#FFF"/>
  <path d="M314.373 255.958L327.245 268.83L321.485 274.59L302.591 255.696L333.135 225.152L351.811 243.827L346.051 249.587L333.397 236.933L326.896 243.435L338.459 254.998L332.786 260.67L321.223 249.107L314.373 255.958Z" fill="#FFF"/>
  <path d="M337.511 279.096L349.161 290.747L343.401 296.506L325.729 278.834L356.274 248.29L362.295 254.312L337.511 279.096Z" fill="#FFF"/>
  <path d="M367.31 320.415L370.975 313.084L358.801 300.91L351.471 304.576L344.969 298.074L386.204 278.22L393.665 285.682L373.855 326.96L367.31 320.415ZM366.35 297.201L374.728 305.579L383.019 288.911L366.35 297.201Z" fill="#FFF"/>
</svg>
  